<?xml version="1.0" encoding="UTF-8"?>
<svg id="Livello_2" data-name="Livello 2" xmlns="http://www.w3.org/2000/svg" viewBox="0 0 84.23 84.23">
  <defs>
    <style>
      .cls-1 {
        fill: #50a31a;
      }

      .cls-1, .cls-2, .cls-3 {
        stroke-width: 0px;
      }

      .cls-2 {
        fill: #92e537;
      }

      .cls-3 {
        fill: #296e0e;
      }
    </style>
  </defs>
  <g id="Layer_1" data-name="Layer 1">
    <g>
      <g>
        <path class="cls-3" d="m67.63,43.74c2.57.84,5,1.95,5,1.95-.1-7.31-3.81-11.38-7.41-12.41-2.92-.83-4.58.11-4.58.11,3.84,2.08,6.19,5.53,6.19,5.53-2.4-2.39-6.79-4.8-6.79-4.8-.64,5.73,3.25,8.19,7.59,9.61Z"/>
        <path class="cls-1" d="m69.6,34.32c2.4-.66,4.84-1.04,4.84-1.04-3.79-5.57-8.72-6.82-12.01-5.77-2.67.84-3.47,2.41-3.47,2.41,4.01-.35,7.58,1.11,7.58,1.11-3.07-.61-7.66-.24-7.66-.24,2.42,4.74,6.67,4.65,10.72,3.53Z"/>
        <path class="cls-2" d="m66.56,26.54c1.66-1.29,3.45-2.37,3.45-2.37-4.75-3.14-9.01-2.53-11.25-.66-1.81,1.52-1.94,3-1.94,3,3.03-1.56,6.28-1.57,6.28-1.57-2.59.5-6.07,2.28-6.07,2.28,3.41,2.93,6.71,1.5,9.52-.68Z"/>
        <path class="cls-3" d="m19.13,40.49c-2.57-.84-5-1.95-5-1.95.1,7.31,3.81,11.38,7.41,12.41,2.92.83,4.58-.11,4.58-.11-3.84-2.08-6.19-5.53-6.19-5.53,2.41,2.39,6.79,4.8,6.79,4.8.65-5.73-3.25-8.19-7.59-9.61Z"/>
        <path class="cls-1" d="m17.17,49.91c-2.4.66-4.84,1.04-4.84,1.04,3.79,5.57,8.72,6.82,12.01,5.78,2.67-.84,3.47-2.41,3.47-2.41-4.01.35-7.58-1.11-7.58-1.11,3.07.62,7.66.24,7.66.24-2.42-4.74-6.66-4.65-10.72-3.53Z"/>
        <path class="cls-2" d="m20.21,57.68c-1.67,1.29-3.45,2.37-3.45,2.37,4.76,3.14,9.01,2.53,11.25.66,1.81-1.52,1.94-3,1.94-3-3.03,1.56-6.28,1.57-6.28,1.57,2.59-.5,6.07-2.28,6.07-2.28-3.41-2.92-6.71-1.49-9.52.69Z"/>
        <path class="cls-3" d="m41.76,66.36c-.84,2.57-1.95,5-1.95,5,7.31-.1,11.38-3.81,12.41-7.42.83-2.92-.11-4.58-.11-4.58-2.09,3.84-5.53,6.19-5.53,6.19,2.39-2.4,4.8-6.79,4.8-6.79-5.73-.64-8.19,3.25-9.61,7.59Z"/>
        <path class="cls-1" d="m51.18,68.33c.66,2.4,1.04,4.84,1.04,4.84,5.57-3.79,6.82-8.72,5.77-12.02-.84-2.67-2.41-3.47-2.41-3.47.35,4.01-1.11,7.58-1.11,7.58.62-3.07.24-7.66.24-7.66-4.74,2.42-4.65,6.67-3.53,10.72Z"/>
        <path class="cls-2" d="m58.95,65.29c1.29,1.66,2.37,3.45,2.37,3.45,3.14-4.75,2.53-9.01.66-11.25-1.52-1.81-3-1.94-3-1.94,1.56,3.03,1.57,6.28,1.57,6.28-.5-2.59-2.28-6.07-2.28-6.07-2.92,3.41-1.49,6.71.69,9.52Z"/>
        <path class="cls-3" d="m45.01,17.86c.84-2.57,1.95-5,1.95-5-7.31.1-11.38,3.81-12.41,7.41-.83,2.92.11,4.58.11,4.58,2.08-3.84,5.53-6.2,5.53-6.2-2.39,2.41-4.8,6.79-4.8,6.79,5.73.64,8.19-3.25,9.61-7.59Z"/>
        <path class="cls-1" d="m35.59,15.9c-.66-2.4-1.04-4.84-1.04-4.84-5.57,3.79-6.82,8.72-5.77,12.02.84,2.67,2.41,3.47,2.41,3.47-.35-4.01,1.11-7.58,1.11-7.58-.62,3.07-.24,7.66-.24,7.66,4.74-2.42,4.65-6.67,3.53-10.72Z"/>
        <path class="cls-2" d="m27.81,18.94c-1.29-1.67-2.37-3.45-2.37-3.45-3.14,4.76-2.53,9.01-.66,11.25,1.52,1.81,3,1.94,3,1.94-1.56-3.03-1.57-6.28-1.57-6.28.5,2.59,2.28,6.07,2.28,6.07,2.92-3.41,1.49-6.71-.69-9.52Z"/>
        <path class="cls-3" d="m59.38,60.41c1.22,2.41,2.15,4.91,2.15,4.91,5.1-5.24,5.36-10.73,3.53-14.01-1.47-2.65-3.32-3.16-3.32-3.16,1.24,4.19.47,8.29.47,8.29-.01-3.39-1.41-8.19-1.41-8.19-4.51,3.6-3.5,8.09-1.43,12.16Z"/>
        <path class="cls-1" d="m67.43,55.14c2.17,1.23,4.16,2.68,4.16,2.68,1.26-6.62-1.34-10.98-4.41-12.58-2.48-1.29-4.16-.75-4.16-.75,3.08,2.59,4.58,6.14,4.58,6.14-1.73-2.6-5.25-5.59-5.25-5.59-1.64,5.06,1.42,8,5.08,10.08Z"/>
        <path class="cls-2" d="m70.78,47.49c2.09.26,4.12.76,4.12.76-1.14-5.58-4.58-8.16-7.49-8.42-2.35-.21-3.49.75-3.49.75,3.24,1.04,5.55,3.33,5.55,3.33-2.19-1.48-5.9-2.68-5.9-2.68.35,4.48,3.69,5.8,7.22,6.25Z"/>
        <path class="cls-3" d="m27.38,23.82c-1.22-2.41-2.16-4.92-2.16-4.92-5.1,5.24-5.35,10.74-3.53,14.02,1.47,2.65,3.32,3.16,3.32,3.16-1.24-4.19-.47-8.29-.47-8.29.01,3.39,1.41,8.19,1.41,8.19,4.51-3.59,3.5-8.09,1.43-12.16Z"/>
        <path class="cls-1" d="m19.33,29.09c-2.16-1.23-4.16-2.68-4.16-2.68-1.26,6.62,1.34,10.98,4.41,12.58,2.48,1.29,4.16.75,4.16.75-3.08-2.59-4.58-6.14-4.58-6.14,1.73,2.6,5.25,5.59,5.25,5.59,1.64-5.06-1.42-8-5.08-10.08Z"/>
        <path class="cls-2" d="m15.99,36.74c-2.09-.27-4.12-.77-4.12-.77,1.14,5.58,4.58,8.16,7.49,8.42,2.36.21,3.49-.75,3.49-.75-3.25-1.04-5.55-3.33-5.55-3.33,2.19,1.48,5.9,2.68,5.9,2.68-.35-4.48-3.69-5.8-7.22-6.25Z"/>
        <path class="cls-3" d="m25.09,58.11c-2.41,1.22-4.92,2.16-4.92,2.16,5.24,5.1,10.74,5.35,14.02,3.53,2.65-1.47,3.16-3.31,3.16-3.31-4.19,1.24-8.29.47-8.29.47,3.39,0,8.19-1.41,8.19-1.41-3.6-4.51-8.09-3.5-12.16-1.43Z"/>
        <path class="cls-1" d="m30.36,66.16c-1.23,2.16-2.68,4.16-2.68,4.16,6.62,1.26,10.98-1.34,12.58-4.41,1.29-2.48.74-4.16.74-4.16-2.59,3.08-6.14,4.58-6.14,4.58,2.6-1.73,5.58-5.25,5.58-5.25-5.06-1.64-8,1.43-10.08,5.09Z"/>
        <path class="cls-2" d="m38.01,69.51c-.27,2.09-.77,4.11-.77,4.11,5.58-1.14,8.16-4.58,8.42-7.49.21-2.36-.75-3.49-.75-3.49-1.03,3.25-3.33,5.55-3.33,5.55,1.48-2.19,2.68-5.9,2.68-5.9-4.48.34-5.8,3.69-6.25,7.22Z"/>
        <path class="cls-3" d="m61.68,26.11c2.41-1.23,4.92-2.16,4.92-2.16-5.24-5.1-10.74-5.35-14.02-3.53-2.65,1.48-3.16,3.32-3.16,3.32,4.19-1.24,8.29-.46,8.29-.46-3.39,0-8.19,1.41-8.19,1.41,3.6,4.51,8.09,3.5,12.16,1.43Z"/>
        <path class="cls-1" d="m56.41,18.06c1.23-2.16,2.69-4.16,2.69-4.16-6.62-1.26-10.98,1.34-12.58,4.41-1.29,2.48-.75,4.16-.75,4.16,2.59-3.08,6.14-4.58,6.14-4.58-2.6,1.73-5.59,5.25-5.59,5.25,5.06,1.64,8-1.42,10.08-5.09Z"/>
        <path class="cls-2" d="m48.76,14.72c.27-2.09.76-4.11.76-4.11-5.58,1.14-8.16,4.58-8.42,7.49-.21,2.35.75,3.49.75,3.49,1.04-3.25,3.33-5.56,3.33-5.56-1.48,2.19-2.68,5.9-2.68,5.9,4.48-.35,5.8-3.69,6.25-7.22Z"/>
      </g>
      <g>
        <path class="cls-3" d="m54.48,12.87c2.13-2.81,4.55-5.34,4.55-5.34-9.06-3-15.67-.16-18.49,3.85-2.27,3.24-1.82,5.7-1.82,5.7,4.21-3.85,9.48-5.28,9.48-5.28-3.98,1.95-8.82,6.33-8.82,6.33,6.8,3.24,11.5-.51,15.1-5.26Z"/>
        <path class="cls-1" d="m43.69,6.42c.21-3.24.78-6.42.78-6.42-8.5,2.3-12.14,7.85-12.26,12.37-.1,3.65,1.5,5.31,1.5,5.31,1.29-5.1,4.61-8.89,4.61-8.89-2.07,3.52-3.57,9.36-3.57,9.36,6.88-.96,8.59-6.24,8.95-11.73Z"/>
        <path class="cls-2" d="m32.79,6.85c-.88-2.61-1.45-5.27-1.45-5.27-5.9,4.53-6.97,10.04-5.62,13.61,1.1,2.89,2.88,3.67,2.88,3.67-.64-4.4.74-8.43.74-8.43-.49,3.42.22,8.46.22,8.46,5.07-2.96,4.71-7.64,3.22-12.05Z"/>
        <path class="cls-3" d="m29.75,71.36c-2.13,2.81-4.55,5.34-4.55,5.34,9.06,3,15.67.16,18.49-3.85,2.27-3.24,1.82-5.7,1.82-5.7-4.21,3.85-9.48,5.28-9.48,5.28,3.98-1.95,8.82-6.33,8.82-6.33-6.8-3.24-11.51.51-15.1,5.26Z"/>
        <path class="cls-1" d="m40.54,77.81c-.21,3.24-.78,6.42-.78,6.42,8.5-2.3,12.14-7.85,12.26-12.37.1-3.65-1.5-5.31-1.5-5.31-1.29,5.1-4.61,8.89-4.61,8.89,2.07-3.52,3.57-9.36,3.57-9.36-6.88.96-8.59,6.24-8.94,11.73Z"/>
        <path class="cls-2" d="m51.43,77.38c.88,2.61,1.45,5.27,1.45,5.27,5.9-4.53,6.98-10.04,5.62-13.61-1.1-2.89-2.88-3.67-2.88-3.67.64,4.41-.75,8.43-.75,8.43.49-3.42-.22-8.47-.22-8.47-5.07,2.96-4.71,7.64-3.22,12.05Z"/>
        <path class="cls-3" d="m71.36,54.48c2.81,2.13,5.34,4.54,5.34,4.54,3-9.06.16-15.67-3.85-18.49-3.24-2.27-5.7-1.82-5.7-1.82,3.85,4.21,5.28,9.48,5.28,9.48-1.95-3.98-6.33-8.82-6.33-8.82-3.24,6.8.51,11.5,5.26,15.11Z"/>
        <path class="cls-1" d="m77.81,43.69c3.24.21,6.42.78,6.42.78-2.3-8.5-7.85-12.14-12.37-12.26-3.65-.1-5.31,1.5-5.31,1.5,5.1,1.29,8.89,4.61,8.89,4.61-3.52-2.07-9.36-3.57-9.36-3.57.96,6.88,6.24,8.59,11.73,8.95Z"/>
        <path class="cls-2" d="m77.38,32.79c2.61-.88,5.27-1.45,5.27-1.45-4.53-5.9-10.04-6.98-13.61-5.62-2.89,1.1-3.67,2.88-3.67,2.88,4.4-.64,8.43.75,8.43.75-3.42-.49-8.46.22-8.46.22,2.96,5.07,7.64,4.71,12.05,3.22Z"/>
        <path class="cls-3" d="m12.87,29.75c-2.81-2.13-5.34-4.55-5.34-4.55-3,9.06-.16,15.67,3.85,18.49,3.24,2.27,5.7,1.82,5.7,1.82-3.85-4.21-5.28-9.48-5.28-9.48,1.95,3.98,6.33,8.82,6.33,8.82,3.24-6.8-.51-11.51-5.26-15.11Z"/>
        <path class="cls-1" d="m6.42,40.54c-3.24-.21-6.42-.78-6.42-.78,2.3,8.5,7.85,12.14,12.36,12.26,3.65.1,5.31-1.5,5.31-1.5-5.1-1.29-8.89-4.61-8.89-4.61,3.52,2.07,9.36,3.57,9.36,3.57-.96-6.88-6.24-8.59-11.73-8.95Z"/>
        <path class="cls-2" d="m6.85,51.43c-2.6.88-5.27,1.45-5.27,1.45,4.53,5.91,10.04,6.98,13.61,5.62,2.89-1.1,3.67-2.88,3.67-2.88-4.4.64-8.43-.75-8.43-.75,3.42.49,8.46-.22,8.46-.22-2.96-5.07-7.64-4.71-12.05-3.22Z"/>
        <path class="cls-3" d="m71.54,30.18c3.49-.48,6.99-.56,6.99-.56-4.29-8.53-10.97-11.2-15.79-10.35-3.9.69-5.32,2.74-5.32,2.74,5.7.26,10.44,2.97,10.44,2.97-4.19-1.44-10.72-1.76-10.72-1.76,2.52,7.1,8.5,7.78,14.4,6.96Z"/>
        <path class="cls-1" d="m68.47,17.99c2.44-2.15,5.09-3.99,5.09-3.99-7.64-4.38-14.14-3.04-17.42.07-2.65,2.51-2.7,4.82-2.7,4.82,4.52-2.7,9.54-3.03,9.54-3.03-3.95,1.03-9.14,4.09-9.14,4.09,5.54,4.18,10.49,1.66,14.62-1.97Z"/>
        <path class="cls-2" d="m60.46,10.59c1.22-2.47,2.7-4.75,2.7-4.75-7.38-.97-12.03,2.17-13.6,5.65-1.27,2.82-.56,4.63-.56,4.63,2.67-3.56,6.49-5.43,6.49-5.43-2.76,2.07-5.83,6.14-5.83,6.14,5.68,1.49,8.74-2.07,10.8-6.24Z"/>
        <path class="cls-3" d="m12.69,54.05c-3.49.48-6.99.56-6.99.56,4.29,8.53,10.97,11.2,15.8,10.35,3.9-.69,5.32-2.74,5.32-2.74-5.7-.26-10.44-2.97-10.44-2.97,4.19,1.44,10.72,1.76,10.72,1.76-2.51-7.1-8.49-7.78-14.4-6.96Z"/>
        <path class="cls-1" d="m15.76,66.24c-2.44,2.15-5.09,3.99-5.09,3.99,7.63,4.38,14.13,3.04,17.42-.07,2.65-2.51,2.7-4.81,2.7-4.81-4.52,2.7-9.54,3.03-9.54,3.03,3.95-1.03,9.14-4.09,9.14-4.09-5.54-4.18-10.49-1.66-14.62,1.97Z"/>
        <path class="cls-2" d="m23.77,73.64c-1.22,2.46-2.7,4.75-2.7,4.75,7.38.97,12.03-2.17,13.6-5.65,1.27-2.82.56-4.64.56-4.64-2.67,3.56-6.49,5.43-6.49,5.43,2.76-2.07,5.83-6.14,5.83-6.14-5.68-1.49-8.74,2.07-10.8,6.24Z"/>
        <path class="cls-3" d="m54.05,71.54c.48,3.49.56,6.99.56,6.99,8.53-4.29,11.2-10.97,10.35-15.8-.69-3.9-2.74-5.32-2.74-5.32-.26,5.7-2.97,10.44-2.97,10.44,1.44-4.19,1.76-10.72,1.76-10.72-7.1,2.52-7.78,8.5-6.96,14.4Z"/>
        <path class="cls-1" d="m66.24,68.47c2.15,2.44,3.99,5.09,3.99,5.09,4.38-7.64,3.04-14.14-.07-17.42-2.51-2.65-4.81-2.7-4.81-2.7,2.7,4.52,3.03,9.54,3.03,9.54-1.03-3.95-4.09-9.14-4.09-9.14-4.18,5.54-1.66,10.49,1.97,14.62Z"/>
        <path class="cls-2" d="m73.64,60.46c2.46,1.22,4.75,2.7,4.75,2.7.97-7.38-2.17-12.03-5.65-13.6-2.82-1.27-4.64-.56-4.64-.56,3.56,2.66,5.43,6.49,5.43,6.49-2.07-2.76-6.14-5.83-6.14-5.83-1.49,5.68,2.07,8.74,6.24,10.8Z"/>
        <path class="cls-3" d="m30.18,12.69c-.48-3.49-.56-6.99-.56-6.99-8.53,4.29-11.2,10.97-10.35,15.8.69,3.9,2.74,5.32,2.74,5.32.26-5.7,2.97-10.44,2.97-10.44-1.44,4.19-1.76,10.71-1.76,10.71,7.1-2.52,7.78-8.5,6.96-14.4Z"/>
        <path class="cls-1" d="m17.99,15.76c-2.15-2.44-3.99-5.09-3.99-5.09-4.38,7.63-3.03,14.13.07,17.42,2.51,2.65,4.81,2.7,4.81,2.7-2.7-4.52-3.03-9.54-3.03-9.54,1.03,3.95,4.1,9.14,4.1,9.14,4.18-5.55,1.66-10.49-1.97-14.62Z"/>
        <path class="cls-2" d="m10.59,23.77c-2.47-1.22-4.75-2.7-4.75-2.7-.97,7.38,2.17,12.03,5.65,13.6,2.82,1.27,4.64.56,4.64.56-3.56-2.67-5.44-6.49-5.44-6.49,2.07,2.76,6.14,5.83,6.14,5.83,1.49-5.68-2.08-8.74-6.24-10.8Z"/>
      </g>
    </g>
  </g>
</svg>