<?xml version="1.0" encoding="UTF-8"?>
<svg id="Livello_2" data-name="Livello 2" xmlns="http://www.w3.org/2000/svg" xmlns:xlink="http://www.w3.org/1999/xlink" viewBox="0 0 1231.17 1127.3">
  <defs>
    <style>
      .cls-1 {
        fill: url(#Sfumatura_senza_nome);
      }

      .cls-1, .cls-2, .cls-3 {
        stroke-width: 0px;
      }

      .cls-2 {
        fill: url(#Sfumatura_senza_nome-3);
      }

      .cls-3 {
        fill: url(#Sfumatura_senza_nome-2);
      }
    </style>
    <linearGradient id="Sfumatura_senza_nome" data-name="Sfumatura senza nome" x1="543.84" y1="396.05" x2="575.84" y2="135.99" gradientUnits="userSpaceOnUse">
      <stop offset="0" stop-color="#3c3"/>
      <stop offset="1" stop-color="#cf6"/>
    </linearGradient>
    <linearGradient id="Sfumatura_senza_nome-2" data-name="Sfumatura senza nome" x1="1321.32" y1="1191.89" x2="1353.32" y2="931.83" gradientTransform="translate(2554.54 245.86) rotate(118.98)" xlink:href="#Sfumatura_senza_nome"/>
    <linearGradient id="Sfumatura_senza_nome-3" data-name="Sfumatura senza nome" x1="-815.08" y1="870.4" x2="-783.08" y2="610.34" gradientTransform="translate(-842.51 654.01) rotate(-121.28)" xlink:href="#Sfumatura_senza_nome"/>
  </defs>
  <g id="Layer_1" data-name="Layer 1">
    <g>
      <path class="cls-1" d="m461.43,648.71s-115.72-122.14-89.43-222.97c27.59-105.81,45.29-96.35,111.47-196.8C538.82,144.94,517,0,517,0c0,0,142.61,112.51,181.27,231.34,81.6,250.8-136.6,446.19-136.6,446.19.34,6.63,40.45-130.99,46.6-207.39,6.41-79.5-27.64-162.72-27.64-162.72,0,0-.72,93.47-38.31,191.52-33.2,86.62-80.9,149.77-80.9,149.77Z"/>
      <path class="cls-3" d="m690.61,629.79s162.91-42.06,238.38,29.8c79.19,75.4,62.35,86.3,118.15,192.86,46.67,89.11,184.03,140.25,184.03,140.25,0,0-167.52,70.24-290.2,46.49-258.93-50.13-324.15-335.68-324.15-335.68-5.97-2.92,95,98.85,158.85,141.25,66.44,44.12,155.74,54.66,155.74,54.66,0,0-81.42-45.91-148.98-126.3-59.69-71.01-91.83-143.33-91.83-143.33Z"/>
      <path class="cls-2" d="m583.28,838s-44.31,162.32-144.14,192.2c-104.76,31.35-105.86,11.32-226.07,6.9-100.53-3.69-213.07,90.2-213.07,90.2,0,0,22.12-180.3,103.6-275.03,171.99-199.95,452.27-114.9,452.27-114.9,5.5-3.73-132.95,33.44-201.45,67.84-71.27,35.8-124.72,108.1-124.72,108.1,0,0,80.26-47.91,183.58-66.7,91.27-16.59,170.01-8.62,170.01-8.62Z"/>
    </g>
  </g>
</svg>